<svg width="116" height="56" viewBox="0 0 116 56" fill="none" xmlns="http://www.w3.org/2000/svg">
<g clip-path="url(#clip0_489_1237)">
<path d="M32.1746 41.079H23.9783C23.9187 41.0789 23.86 41.0647 23.807 41.0374C23.7557 41.0091 23.7114 40.9695 23.6775 40.9217L9.17761 18.9752V40.7273C9.17775 40.8207 9.14118 40.9105 9.07579 40.9772C9.04273 41.0112 9.00314 41.0381 8.9594 41.0564C8.91566 41.0747 8.86867 41.084 8.82125 41.0836H0.772997C0.686041 41.0831 0.602829 41.0482 0.541592 40.9864C0.510159 40.9568 0.485267 40.9209 0.46853 40.881C0.451792 40.8412 0.44357 40.7983 0.444392 40.755V5.55372C0.444248 5.50754 0.453703 5.46184 0.47216 5.41951C0.487921 5.37725 0.51327 5.33923 0.546211 5.30843C0.57831 5.27706 0.615988 5.25194 0.657295 5.23438C0.699993 5.22511 0.744183 5.22511 0.786881 5.23438H8.98787C9.04598 5.23447 9.10317 5.24877 9.15448 5.27603C9.20585 5.30433 9.25015 5.34388 9.28406 5.39173L23.7839 27.4493V5.46578C23.7842 5.39574 23.8069 5.32764 23.8487 5.27141C23.8872 5.21384 23.9444 5.17134 24.0107 5.15108L32.0497 2.40661C32.1044 2.3927 32.1616 2.3927 32.2163 2.40661C32.2711 2.41483 32.3233 2.43541 32.369 2.46678C32.4155 2.50086 32.4535 2.5452 32.4801 2.59636C32.5038 2.64711 32.5165 2.70234 32.5171 2.75835V40.7273C32.5166 40.7714 32.5088 40.8152 32.494 40.8569C32.4765 40.8996 32.4514 40.9388 32.4199 40.9726C32.3867 41.0025 32.3493 41.0274 32.3089 41.0466C32.2656 41.0614 32.2203 41.0692 32.1746 41.0697" fill="#2930FF"/>
<path d="M38.7741 18.6605C39.7752 16.5753 41.3399 14.8118 43.2911 13.5696C45.2055 12.3759 47.422 11.7559 49.6779 11.7831C51.5148 11.7409 53.3326 12.1627 54.9632 13.0096C56.3966 13.7489 57.605 14.8598 58.462 16.2261V12.4033C58.4635 12.337 58.4844 12.2726 58.5222 12.2182C58.5613 12.1641 58.6163 12.1237 58.6796 12.1025L66.7371 9.35338C66.7904 9.34172 66.8457 9.34172 66.899 9.35338C66.9542 9.3633 67.0064 9.38545 67.0518 9.41818C67.094 9.45178 67.13 9.49249 67.1582 9.5385C67.1819 9.58763 67.1945 9.64135 67.1953 9.69587V40.3385C67.1955 40.3852 67.1862 40.4315 67.1679 40.4745C67.1496 40.5174 67.1227 40.5562 67.0888 40.5884C67.0568 40.6225 67.018 40.6496 66.975 40.6679C66.932 40.6862 66.8856 40.6954 66.8389 40.6949H58.8138C58.7217 40.6948 58.6335 40.6582 58.5685 40.593C58.5354 40.5615 58.5092 40.5234 58.4917 40.4812C58.4741 40.4389 58.4656 40.3935 58.4667 40.3478V36.6453C57.5791 38.0044 56.3566 39.1121 54.9169 39.8618C53.2845 40.7081 51.4653 41.1299 49.627 41.0883C47.3852 41.1112 45.1852 40.4808 43.2957 39.274C41.3373 38.01 39.7724 36.2222 38.7787 34.1137C37.6836 31.6858 37.1172 29.0528 37.1172 26.3894C37.1172 23.726 37.6836 21.093 38.7787 18.6651L38.7741 18.6605ZM56.6524 21.2615C56.0897 20.6589 55.4092 20.1785 54.6531 19.8499C53.8931 19.531 53.0752 19.3734 52.2511 19.3871C51.0501 19.3839 49.8743 19.7313 48.868 20.3868C46.9581 21.6456 46.0032 23.6511 46.0032 26.4033C46.0032 28.5816 46.6079 30.3094 47.8174 31.5868C48.3807 32.2104 49.0724 32.7047 49.845 33.0354C50.6176 33.3662 51.4527 33.5257 52.2928 33.5028C53.4913 33.4924 54.6601 33.1285 55.6528 32.4569C57.5225 31.1702 58.4605 29.1647 58.4667 26.4403C58.4667 24.262 57.8619 22.5419 56.6524 21.28" fill="#1E2432"/>
<path d="M80.5291 0.772884V40.755C80.5299 40.7982 80.5217 40.8412 80.505 40.881C80.4883 40.9209 80.4634 40.9568 80.4319 40.9864C80.3714 41.0458 80.2899 41.079 80.2052 41.079H72.1245C72.0817 41.0796 72.0393 41.0717 71.9995 41.0559C71.9598 41.04 71.9236 41.0164 71.8931 40.9864C71.862 40.9556 71.8373 40.9188 71.8206 40.8783C71.8039 40.8377 71.7955 40.7942 71.7959 40.7504V3.5266C71.7962 3.45656 71.8189 3.38845 71.8607 3.33222C71.8999 3.27234 71.9589 3.22811 72.0273 3.20726L80.0663 0.462802C80.1182 0.451527 80.1718 0.451527 80.2237 0.462802C80.2762 0.474115 80.3263 0.494476 80.3718 0.522969C80.4142 0.555089 80.4489 0.596177 80.4736 0.643297C80.4973 0.690763 80.5099 0.742976 80.5106 0.796025" fill="#1E2432"/>
<path d="M86.7857 18.6605C87.7854 16.5743 89.3504 14.8105 91.3028 13.5696C93.217 12.3754 95.4336 11.7554 97.6895 11.7832C99.5263 11.7419 101.344 12.1637 102.975 13.0096C104.406 13.7516 105.614 14.8619 106.474 16.2261V12.4403C106.472 12.3671 106.494 12.2953 106.538 12.2367C106.58 12.179 106.638 12.1354 106.705 12.1118L114.749 9.36728C114.802 9.35336 114.858 9.35336 114.911 9.36728C114.966 9.37347 115.019 9.39424 115.063 9.42745C115.106 9.46105 115.142 9.50178 115.17 9.54779C115.194 9.59692 115.206 9.65062 115.207 9.70514V40.3663C115.208 40.4108 115.199 40.455 115.182 40.4963C115.166 40.5376 115.141 40.5751 115.109 40.6066C115.078 40.6381 115.04 40.6629 114.999 40.6797C114.958 40.6965 114.914 40.7048 114.869 40.7042H106.825C106.732 40.7043 106.642 40.6677 106.576 40.6023C106.51 40.5373 106.474 40.4491 106.474 40.357V36.6546C105.589 38.0159 104.366 39.1242 102.924 39.8711C101.296 40.7093 99.4831 41.1246 97.6525 41.079C95.4114 41.1018 93.2119 40.4731 91.3213 39.2694C89.3647 38.0019 87.7992 36.2152 86.7996 34.1091C85.7073 31.6805 85.1426 29.0478 85.1426 26.3848C85.1426 23.7218 85.7073 21.0892 86.7996 18.6605H86.7857ZM104.659 21.2615C104.1 20.6556 103.42 20.1742 102.662 19.8489C101.905 19.5235 101.087 19.3615 100.263 19.3732C99.0605 19.3708 97.8834 19.7181 96.875 20.3729C94.9682 21.6317 94.0133 23.6373 94.0102 26.3894C94.0102 28.5677 94.6149 30.2956 95.8244 31.5729C96.3902 32.1934 97.0824 32.6855 97.8544 33.0161C98.6264 33.3466 99.4602 33.5078 100.3 33.4889C101.498 33.479 102.667 33.1152 103.66 32.443C105.533 31.1564 106.471 29.1509 106.474 26.4265C106.474 24.2482 105.869 22.5281 104.659 21.2661" fill="#1E2432"/>
<path d="M76.4471 55.6899C73.5388 55.6726 70.673 54.99 68.0691 53.6945C65.4652 52.399 63.1923 50.5248 61.4243 48.2155C61.1555 47.8269 61.0507 47.348 61.1327 46.8826C61.1729 46.6519 61.2581 46.4314 61.3836 46.2337C61.5091 46.0359 61.6723 45.8649 61.8639 45.7303C62.2535 45.4596 62.734 45.3532 63.2015 45.4341C63.4318 45.4751 63.6517 45.5613 63.8487 45.6875C64.0457 45.8138 64.2158 45.9778 64.3492 46.1699C65.7843 48.012 67.6188 49.5044 69.7143 50.5345C71.8099 51.5647 74.112 52.1058 76.4471 52.117C78.6923 52.1532 80.9123 51.6405 82.9142 50.6234C84.9161 49.6063 86.6393 48.1157 87.934 46.281C88.0442 46.0594 88.1992 45.8632 88.3892 45.7047C88.5792 45.5462 88.8001 45.4289 89.0378 45.3602C89.2755 45.2915 89.5249 45.273 89.7702 45.3058C90.0155 45.3386 90.2512 45.4219 90.4626 45.5506C90.6739 45.6793 90.8563 45.8504 90.998 46.0533C91.1397 46.2561 91.2377 46.4862 91.2859 46.7289C91.334 46.9716 91.3312 47.2217 91.2777 47.4632C91.2241 47.7048 91.1209 47.9326 90.9747 48.1322C89.363 50.4871 87.1962 52.4088 84.6658 53.7277C82.1353 55.0466 79.319 55.7221 76.4656 55.6946" fill="#2930FF"/>
</g>
<defs>
<clipPath id="clip0_489_1237">
<rect width="115.24" height="56" fill="white"/>
</clipPath>
</defs>
</svg>
